<?xml version="1.0" encoding="UTF-8" standalone="no"?>
<!-- Created with Inkscape (http://www.inkscape.org/) -->

<svg
   width="50.427864mm"
   height="18.034449mm"
   viewBox="0 0 50.427864 18.034449"
   version="1.1"
   id="svg107"
   inkscape:version="1.1 (c68e22c387, 2021-05-23)"
   sodipodi:docname="logo_konsi.svg"
   xmlns:inkscape="http://www.inkscape.org/namespaces/inkscape"
   xmlns:sodipodi="http://sodipodi.sourceforge.net/DTD/sodipodi-0.dtd"
   xmlns="http://www.w3.org/2000/svg"
   xmlns:svg="http://www.w3.org/2000/svg">
  <sodipodi:namedview
     id="namedview109"
     pagecolor="#505050"
     bordercolor="#eeeeee"
     borderopacity="1"
     inkscape:pageshadow="0"
     inkscape:pageopacity="0"
     inkscape:pagecheckerboard="0"
     inkscape:document-units="mm"
     showgrid="false"
     inkscape:zoom="0.51580387"
     inkscape:cx="93.058627"
     inkscape:cy="140.5573"
     inkscape:window-width="1920"
     inkscape:window-height="1017"
     inkscape:window-x="-8"
     inkscape:window-y="-8"
     inkscape:window-maximized="1"
     inkscape:current-layer="layer1"
     fit-margin-top="0"
     fit-margin-left="0"
     fit-margin-right="0"
     fit-margin-bottom="0" />
  <defs
     id="defs104" />
  <g
     inkscape:label="Layer 1"
     inkscape:groupmode="layer"
     id="layer1"
     transform="translate(-80.76836,-111.3001)">
    <g
       id="Layer1000"
       transform="matrix(0.26458333,0,0,0.26458333,50.046346,67.996062)">
      <path
         d="m 134.7787,191.2015 12.4718,-10.4922 20.2556,-17.0405 v 14.7143 l -2.7655,2.3262 -20.2553,17.0402 20.2553,17.0405 2.7655,2.3262 v 14.7143 L 147.2505,214.79 134.7787,204.2973 c -4.5953,-3.8244 -4.4999,-8.2004 0,-13.0958 z m -18.664,9.0912 17.2325,14.4973 2.7653,2.3262 v 14.7143 l -19.9978,-16.8243 z m 0.0141,-19.7996 7.4508,-6.2684 12.547,-10.5559 v 14.7143 l -2.7652,2.3262 -17.2326,14.4973 z"
         style="fill:#00ae8b;fill-rule:evenodd"
         id="path4" />
      <path
         d="m 203.9198,212.1149 h -7.2546 l -11.4924,-12.7133 v 12.7133 h -5.5665 v -28.7307 h 5.5665 v 12.821 l 11.7439,-12.821 h 6.6081 L 190.56,197.4981 Z m 102.7884,0 h -5.5664 v -18.5202 l 5.5664,-3.6051 z m -30.268,-8.2023 c 0.1206,0.2627 0.2822,0.5171 0.4421,0.7463 0.3271,0.4683 0.8064,0.8721 1.2756,1.1916 0.6323,0.4304 1.3837,0.7429 2.1139,0.9616 1.0148,0.3042 2.1366,0.3897 3.1993,0.3897 0.6028,0 1.2121,-0.0337 1.8068,-0.0635 0.6873,-0.0347 1.3896,-0.1592 2.0512,-0.3454 0.6355,-0.1792 1.2487,-0.4859 1.7665,-0.8958 0.5855,-0.4633 0.8623,-1.1352 0.886,-1.8712 0.0246,-0.7724 -0.2822,-1.4558 -0.8781,-1.9577 -0.4983,-0.4568 -1.3308,-0.789 -1.9563,-1.018 -1.3402,-0.4907 -2.8321,-0.7241 -4.2473,-0.9321 -0.6336,-0.106 -1.2749,-0.2144 -1.9016,-0.3103 -0.8137,-0.1245 -1.6337,-0.3369 -2.4213,-0.57 -0.8742,-0.2591 -1.7409,-0.6243 -2.554,-1.0342 -0.8142,-0.4101 -1.5815,-0.9567 -2.2329,-1.5946 -0.6525,-0.6392 -1.1664,-1.4214 -1.5155,-2.2646 -0.4046,-0.9772 -0.492,-2.0849 -0.4285,-3.1329 0.0686,-1.1364 0.3899,-2.2365 0.966,-3.2194 0.5718,-0.9753 1.3596,-1.8077 2.2817,-2.4588 1.0322,-0.7293 2.2343,-1.2388 3.452,-1.5635 1.4606,-0.3891 2.994,-0.5475 4.5105,-0.5475 1.5427,0 3.109,0.1752 4.5802,0.6264 1.2292,0.3769 2.4205,0.9555 3.4263,1.7616 0.9209,0.7381 1.6792,1.6616 2.2043,2.7197 0.4678,0.9418 0.7527,1.9835 0.8703,3.022 l 0.0156,0.138 h -5.3 l -0.0205,-0.0986 c -0.1143,-0.5508 -0.3394,-1.0767 -0.7048,-1.4971 -0.4085,-0.4694 -0.9289,-0.8461 -1.5007,-1.0917 -0.5847,-0.2515 -1.2241,-0.4348 -1.8551,-0.5249 -0.6157,-0.0881 -1.252,-0.1491 -1.8818,-0.1491 -0.5451,0 -1.0964,0.0405 -1.6323,0.0844 -0.5937,0.0488 -1.2013,0.1824 -1.7655,0.3709 -0.5393,0.1801 -1.0537,0.477 -1.4643,0.8715 -0.4375,0.4204 -0.6726,0.9707 -0.7341,1.5793 l -0.002,0.0139 v 0.0215 c 0,0.2475 0.0242,0.5295 0.043,0.7805 0.0351,0.4714 0.3657,0.8854 0.6984,1.1921 0.5027,0.4633 1.2692,0.7992 1.9072,1.0302 1.1789,0.427 2.4925,0.6457 3.731,0.8073 2.9,0.3789 6.6464,1.1574 8.9938,2.9762 1.9095,1.4794 2.6815,3.5685 2.6375,5.9465 -0.019,1.0276 -0.3058,2.0361 -0.7514,2.9589 -0.4953,1.0258 -1.257,1.9025 -2.1408,2.6132 -1.0644,0.8561 -2.3595,1.4565 -3.6566,1.8654 -1.6869,0.5317 -3.513,0.7089 -5.2832,0.7089 -1.4596,0 -2.9225,-0.1745 -4.3433,-0.4689 -1.4108,-0.2925 -2.7909,-0.8027 -4.0433,-1.5156 -1.1957,-0.6809 -2.2396,-1.5991 -3.0621,-2.7023 -0.7605,-1.02 -1.1753,-2.2186 -1.3303,-3.483 l -0.0171,-0.1391 h 5.732 z m -11.4258,8.2023 h -5.4588 l -12.9648,-20.1476 v 20.1476 h -5.4587 v -28.7307 h 6.2487 l 12.1748,18.7467 v -18.7467 h 5.4588 z m -30.2119,-14.3654 c 0,2.059 -0.403,4.0006 -1.2031,5.8179 -0.8,1.8178 -1.8915,3.4 -3.2801,4.7408 -1.3886,1.3407 -3.0048,2.4 -4.8423,3.1783 -1.8437,0.7781 -3.8009,1.1672 -5.8838,1.1672 -2.0832,0 -4.0462,-0.3891 -5.9019,-1.1672 -1.8495,-0.7783 -3.4737,-1.8395 -4.8604,-3.1783 -1.3866,-1.3386 -2.4798,-2.9174 -3.2798,-4.7227 -0.8001,-1.8059 -1.2034,-3.753 -1.2034,-5.836 0,-2.0829 0.4033,-4.0362 1.2034,-5.854 0.8,-1.8173 1.8932,-3.4019 3.2798,-4.7405 1.3867,-1.3388 3.0109,-2.3942 4.8604,-3.1605 1.8557,-0.7661 3.8187,-1.1491 5.9019,-1.1491 2.0829,0 4.0401,0.383 5.8838,1.1491 1.8375,0.7663 3.4559,1.8276 4.8423,3.1783 1.3867,1.3508 2.4801,2.935 3.2801,4.7408 0.8001,1.8053 1.2031,3.753 1.2031,5.8359 z m -5.5666,0 c 0,-1.3168 -0.2515,-2.556 -0.7542,-3.7171 -0.5026,-1.1611 -1.1991,-2.1808 -2.0709,-3.0526 -0.8718,-0.872 -1.8974,-1.5683 -3.0768,-2.0829 -1.173,-0.5149 -2.424,-0.7722 -3.7408,-0.7722 -1.3408,0 -2.6039,0.2573 -3.7769,0.7722 -1.1792,0.5146 -2.2048,1.2111 -3.0766,2.0829 -0.8718,0.872 -1.5685,1.8915 -2.0712,3.0526 -0.5026,1.1611 -0.7541,2.4003 -0.7541,3.7171 0,1.293 0.2515,2.5261 0.7541,3.6991 0.5027,1.1731 1.1972,2.1967 2.0712,3.0707 0.8735,0.8735 1.8974,1.568 3.0766,2.0829 1.173,0.5146 2.4361,0.7722 3.7769,0.7722 1.3168,0 2.5678,-0.2576 3.7408,-0.7722 1.1794,-0.5149 2.203,-1.2092 3.0768,-2.0829 0.8737,-0.8738 1.5683,-1.8976 2.0709,-3.0707 0.5027,-1.173 0.7542,-2.4061 0.7542,-3.6991 z"
         style="fill:#ffffff;fill-rule:evenodd"
         id="path6" />
      <path
         d="m 301.092,190.6803 v -7.2966 h 5.5664 v 3.6915 z"
         style="fill:#00ae8b;fill-rule:evenodd"
         id="path8" />
    </g>
  </g>
</svg>
